<?xml version="1.0"?>
<svg xmlns="http://www.w3.org/2000/svg" xmlns:xlink="http://www.w3.org/1999/xlink" xmlns:svgjs="http://svgjs.com/svgjs" version="1.1" width="512" height="512" x="0" y="0" viewBox="0 0 512 512" style="enable-background:new 0 0 512 512" xml:space="preserve" class=""><g>
<path xmlns="http://www.w3.org/2000/svg" style="" d="M77.927,69.012l-12.73,6.617c-0.088,0.105-0.464,0.55-0.376,0.445L60.19,90.478l38.948,35.609  c6.762-6.511,14.322-12.269,22.604-17.083L77.927,69.012z" fill="#eae9e8" data-original="#eae9e8"/>
<path xmlns="http://www.w3.org/2000/svg" style="" d="M449.291,105.746c-20.537-11.269-43.783-16.105-66.791-14.578  c-58.804,3.897-87.299,45.016-90.773,47.662c-3.29,3.572-8.93,3.572-12.22,0c-3.188-2.332-35.203-48.298-99.754-47.935  C74.565,91.488,20.044,217.373,91.481,294.96l24.36,26.456l0.001-0.001c8.671,9.417,142.041,154.264,148.772,161.575  c11.308,12.279,30.697,12.279,42.004,0c17.748-19.276,157.633-171.196,173.132-188.03  C533.438,236.652,517.932,143.404,449.291,105.746z" fill="#c60e7c" data-original="#f96989" class=""/>
<path xmlns="http://www.w3.org/2000/svg" style="" d="M316.561,447.444c-6.731-7.31-140.102-152.158-148.772-161.575h-0.001l-24.36-26.456  c-45.449-49.36-39.904-118.261-2.776-162.018C62.299,124.145,29.547,227.694,91.481,294.96l24.36,26.456l0.001-0.001  c8.671,9.417,142.041,154.264,148.772,161.575c11.308,12.279,30.697,12.279,42.004,0c3.705-4.025,12.747-13.844,24.858-26.997  C325.948,454.794,320.71,451.949,316.561,447.444z" fill="#9e0b63" data-original="#ed5a81" class=""/>
<g xmlns="http://www.w3.org/2000/svg">
	<path style="" d="M476.61,331.286l-41.472-16.476c-11.266-4.476-23.696-5.095-35.352-1.762l-40.186,11.504   c109.08,97.838,95.293,85.472,96.486,86.542c1.368,1.226,2.428,2.666,3.191,4.22l26.551-22.241   C506.804,375.501,501.802,341.97,476.61,331.286z" fill="#9cd7f2" data-original="#9cd7f2"/>
	<path style="" d="M439.578,429.746l-96.19-86.233l-7.108,40.287c-2.11,11.937-0.208,24.237,5.409,34.979   l20.677,39.547c13.232,23.951,47.101,25.46,62.409,2.778l19.246-28.513l-0.353-0.313   C442.207,431.69,440.818,430.857,439.578,429.746z" fill="#9cd7f2" data-original="#9cd7f2"/>
</g>
<g xmlns="http://www.w3.org/2000/svg">
	<path style="" d="M485.828,393.072c16.835-14.103,16.923-38.477,3.282-53.078   c-16.513,1.428-22.383,4.995-86.796,22.894l53.771,48.206c1.368,1.226,2.428,2.666,3.191,4.22L485.828,393.072z" fill="#71c5db" data-original="#71c5db" class=""/>
	<path style="" d="M444.021,432.59l-0.353-0.313c-1.461-0.588-2.851-1.421-4.09-2.532l-53.743-48.181   c-10.914,65.241-13.968,70.961-13.396,88.379c15.935,11.957,40.081,9.319,52.337-8.839L444.021,432.59z" fill="#71c5db" data-original="#71c5db" class=""/>
</g>
<path xmlns="http://www.w3.org/2000/svg" style="" d="M97.268,29.78c-103.129-11.792-84.53-9.666-86.771-9.921C4.098,19.123-1.439,25.68,0.358,31.865  c0.627,2.164-4.584-15.814,24.316,83.883c4.284,14.866,25.233,15.185,29.969,0.456l12.239-38.069  c0.088-0.105,0.464-0.55,0.376-0.445l35.481-18.443C116.464,52.112,112.642,31.514,97.268,29.78z" fill="#9cd7f2" data-original="#9cd7f2"/>
<path xmlns="http://www.w3.org/2000/svg" style="" d="M0.358,31.865c0.627,2.164-4.584-15.813,24.316,83.883c4.284,14.866,25.233,15.184,29.969,0.456  l12.239-38.068c0.088-0.105,0.464-0.55,0.376-0.445L2.411,23.328C0.385,25.5-0.574,28.655,0.358,31.865z" fill="#71c5db" data-original="#71c5db" class=""/>
<path xmlns="http://www.w3.org/2000/svg" style="" d="M438.547,430.776L276.224,285.254c-5.719-5.128-6.2-13.921-1.072-19.641  c5.128-5.718,13.921-6.2,19.64-1.071l162.323,145.522c5.719,5.127,6.199,13.921,1.072,19.64  C453.056,435.43,444.259,435.898,438.547,430.776z" fill="#eae9e8" data-original="#eae9e8"/>
<g xmlns="http://www.w3.org/2000/svg">
</g>
<g xmlns="http://www.w3.org/2000/svg">
</g>
<g xmlns="http://www.w3.org/2000/svg">
</g>
<g xmlns="http://www.w3.org/2000/svg">
</g>
<g xmlns="http://www.w3.org/2000/svg">
</g>
<g xmlns="http://www.w3.org/2000/svg">
</g>
<g xmlns="http://www.w3.org/2000/svg">
</g>
<g xmlns="http://www.w3.org/2000/svg">
</g>
<g xmlns="http://www.w3.org/2000/svg">
</g>
<g xmlns="http://www.w3.org/2000/svg">
</g>
<g xmlns="http://www.w3.org/2000/svg">
</g>
<g xmlns="http://www.w3.org/2000/svg">
</g>
<g xmlns="http://www.w3.org/2000/svg">
</g>
<g xmlns="http://www.w3.org/2000/svg">
</g>
<g xmlns="http://www.w3.org/2000/svg">
</g>
</g></svg>
